<?xml version="1.0" encoding="UTF-8"?><svg id="Layer_1" xmlns="http://www.w3.org/2000/svg" viewBox="0 0 841.89 595.28"><defs><style>.cls-1{fill:#231f20;}</style></defs><g><path class="cls-1" d="M283.12,314.05c0,1.3-.11,2.58-.34,3.82-.45,2.58-1.36,4.99-2.64,7.17-3.12,5.33-8.46,9.21-14.74,10.38h-40.09v-24.7h10.57v14.33h29.71c.51,0,1.01-.12,1.46-.36,2.69-1.44,4.77-3.87,5.75-6.8,.4-1.19,.62-2.48,.62-3.82,0-1.16-.17-2.28-.47-3.34-1.11-3.86-4.11-6.93-7.94-8.13-.8-.26-2.56-.51-2.64-.51v-10.3c2.9-1.5,5.11-4.15,6.03-7.34,.32-1.07,.48-2.2,.48-3.36,0-1.26-.2-2.47-.55-3.61-.85-2.69-2.6-4.98-4.92-6.49-.48-.32-1.05-.48-1.63-.48h-25.89v13.93h-10.57v-24.31h37.32c5.67,1.56,10.4,5.35,13.21,10.38,1.19,2.13,2.02,4.47,2.43,6.96,.21,1.17,.31,2.38,.31,3.61,0,1.15-.09,2.27-.26,3.36-.43,2.81-1.41,5.44-2.81,7.78-.74,1.24-1.6,2.39-2.56,3.45,2.79,1.75,5.15,4.13,6.89,6.92,1.52,2.43,2.57,5.18,3.02,8.13,.17,1.09,.26,2.2,.26,3.34Z"/><path class="cls-1" d="M142.79,314.05c0,1.3,.11,2.58,.34,3.82,.45,2.58,1.36,4.99,2.64,7.17,3.12,5.33,8.46,9.21,14.74,10.38h40.09v-24.7h-10.57v14.33h-29.71c-.51,0-1.01-.12-1.46-.36-2.69-1.44-4.77-3.87-5.75-6.8-.4-1.19-.62-2.48-.62-3.82,0-1.16,.17-2.28,.47-3.34,1.11-3.86,4.11-6.93,7.94-8.13,.8-.26,2.56-.51,2.64-.51v-10.3c-2.9-1.5-5.11-4.15-6.03-7.34-.32-1.07-.48-2.2-.48-3.36,0-1.26,.2-2.47,.55-3.61,.85-2.69,2.6-4.98,4.92-6.49,.48-.32,1.05-.48,1.63-.48h25.89v13.93h10.57v-24.31h-37.32c-5.67,1.56-10.4,5.35-13.21,10.38-1.19,2.13-2.02,4.47-2.43,6.96-.21,1.17-.31,2.38-.31,3.61s.09,2.27,.26,3.36c.43,2.81,1.41,5.44,2.81,7.78,.74,1.24,1.6,2.39,2.56,3.45-2.79,1.75-5.15,4.13-6.89,6.92-1.52,2.43-2.57,5.18-3.02,8.13-.17,1.09-.26,2.2-.26,3.34Z"/></g><path class="cls-1" d="M244.28,317.87v-15.29h-26.09v32.84h0v7.01c0,.67,.05,1.34,.16,1.98,.95,6.12,6.24,10.8,12.62,10.8,7.07,0,12.8-5.72,12.8-12.78h10.71c0,12.98-10.52,23.49-23.5,23.49-7.24,0-13.71-3.27-18.01-8.42-4.32,5.14-10.78,8.42-18.02,8.42-12.98,0-23.5-10.51-23.5-23.49h10.71c0,7.06,5.72,12.78,12.79,12.78,6.39,0,11.67-4.67,12.63-10.79h0c.11-.65,.16-1.32,.16-1.99v-7.01h0v-32.84h-26.09v15.29h-10.38v-40.42h10.38v14.75h26.09v-32.09h0v-7.33c0-.67-.05-1.34-.16-1.98-.95-6.12-6.24-10.8-12.62-10.8-7.07,0-12.8,5.72-12.8,12.78h-10.71c0-12.98,10.52-23.49,23.5-23.49,7.24,0,13.71,3.27,18.01,8.42,4.32-5.14,10.78-8.42,18.02-8.42,12.98,0,23.5,10.51,23.5,23.49h-10.71c0-7.06-5.72-12.78-12.79-12.78-6.39,0-11.67,4.67-12.63,10.79h0c-.11,.65-.16,1.32-.16,1.99v7.33h0v32.09h26.09v-14.75h10.38v40.42h-10.38Z"/><g><path class="cls-1" d="M323.89,279.76v-47.06h9.95v19.41h20.2v-19.41h9.93v47.06h-9.93v-19.44h-20.2v19.44h-9.95Z"/><path class="cls-1" d="M415.4,256.23c0,5.13-.97,9.5-2.91,13.1-1.94,3.6-4.57,6.35-7.9,8.24-3.33,1.89-7.07,2.84-11.22,2.84s-7.94-.95-11.26-2.85c-3.32-1.9-5.95-4.65-7.88-8.25-1.93-3.6-2.9-7.96-2.9-13.07s.96-9.5,2.9-13.1c1.93-3.6,4.56-6.34,7.88-8.24,3.32-1.89,7.08-2.84,11.26-2.84s7.89,.95,11.22,2.84c3.33,1.89,5.97,4.64,7.9,8.24,1.94,3.6,2.91,7.97,2.91,13.1Zm-10.09,0c0-3.32-.49-6.13-1.48-8.41-.99-2.28-2.38-4.01-4.17-5.19s-3.89-1.77-6.3-1.77-4.5,.59-6.3,1.77c-1.79,1.18-3.18,2.91-4.17,5.19-.99,2.28-1.48,5.09-1.48,8.41s.49,6.13,1.48,8.41c.99,2.28,2.38,4.01,4.17,5.19,1.79,1.18,3.89,1.77,6.3,1.77s4.5-.59,6.3-1.77c1.79-1.18,3.18-2.91,4.17-5.19,.99-2.28,1.48-5.08,1.48-8.41Z"/><path class="cls-1" d="M422.75,279.76v-47.06h9.95v38.85h20.17v8.2h-30.12Z"/><path class="cls-1" d="M469.42,232.7v47.06h-9.95v-47.06h9.95Z"/><path class="cls-1" d="M494.3,279.76h-16.68v-47.06h16.82c4.73,0,8.81,.94,12.22,2.81,3.42,1.88,6.05,4.57,7.89,8.08,1.85,3.51,2.77,7.71,2.77,12.59s-.92,9.11-2.77,12.64c-1.85,3.52-4.49,6.23-7.93,8.11-3.44,1.88-7.55,2.83-12.33,2.83Zm-6.73-8.52h6.32c2.94,0,5.42-.52,7.43-1.57,2.01-1.05,3.53-2.68,4.55-4.89,1.02-2.21,1.53-5.07,1.53-8.58s-.51-6.32-1.53-8.52-2.53-3.83-4.54-4.87c-2.01-1.04-4.48-1.56-7.42-1.56h-6.34v30.01Z"/><path class="cls-1" d="M530.15,279.76h-10.66l16.24-47.06h12.82l16.22,47.06h-10.66l-11.79-36.3h-.37l-11.81,36.3Zm-.67-18.5h25.18v7.77h-25.18v-7.77Z"/><path class="cls-1" d="M562.89,232.7h11.14l10.73,20.27h.46l10.73-20.27h11.14l-17.16,30.42v16.64h-9.88v-16.64l-17.16-30.42Z"/><path class="cls-1" d="M625.73,240.91v-8.2h38.65v8.2h-14.41v38.85h-9.83v-38.85h-14.41Z"/><path class="cls-1" d="M711.92,256.23c0,5.13-.97,9.5-2.91,13.1-1.94,3.6-4.57,6.35-7.9,8.24-3.33,1.89-7.07,2.84-11.22,2.84s-7.94-.95-11.26-2.85c-3.32-1.9-5.95-4.65-7.88-8.25-1.93-3.6-2.9-7.96-2.9-13.07s.96-9.5,2.9-13.1c1.93-3.6,4.56-6.34,7.88-8.24,3.32-1.89,7.08-2.84,11.26-2.84s7.89,.95,11.22,2.84c3.33,1.89,5.97,4.64,7.9,8.24,1.94,3.6,2.91,7.97,2.91,13.1Zm-10.09,0c0-3.32-.49-6.13-1.48-8.41-.99-2.28-2.38-4.01-4.17-5.19s-3.89-1.77-6.3-1.77-4.5,.59-6.3,1.77c-1.79,1.18-3.18,2.91-4.17,5.19-.99,2.28-1.48,5.09-1.48,8.41s.49,6.13,1.48,8.41c.99,2.28,2.38,4.01,4.17,5.19,1.79,1.18,3.89,1.77,6.3,1.77s4.5-.59,6.3-1.77c1.79-1.18,3.18-2.91,4.17-5.19,.99-2.28,1.48-5.08,1.48-8.41Z"/></g><g><path class="cls-1" d="M323.89,365v-69.32h27.76c5.1,0,9.35,.76,12.76,2.27,3.41,1.51,5.97,3.6,7.68,6.28,1.72,2.67,2.57,5.75,2.57,9.22,0,2.71-.54,5.08-1.63,7.12-1.08,2.04-2.57,3.71-4.45,5.01-1.88,1.3-4.03,2.22-6.45,2.76v.68c2.64,.11,5.12,.86,7.43,2.23,2.31,1.38,4.19,3.3,5.64,5.77,1.44,2.47,2.17,5.41,2.17,8.82,0,3.68-.91,6.96-2.73,9.83-1.82,2.88-4.5,5.15-8.04,6.82-3.54,1.67-7.91,2.5-13.1,2.5h-29.62Zm14.66-40.32h10.87c2.01,0,3.8-.35,5.37-1.07s2.81-1.72,3.72-3.03c.91-1.31,1.37-2.88,1.37-4.7,0-2.5-.89-4.52-2.66-6.06s-4.28-2.3-7.53-2.3h-11.14v17.16Zm0,28.33h11.95c4.08,0,7.06-.78,8.94-2.35,1.87-1.57,2.81-3.66,2.81-6.28,0-1.92-.46-3.61-1.39-5.08-.93-1.47-2.24-2.62-3.94-3.45-1.7-.83-3.73-1.25-6.08-1.25h-12.29v18.41Z"/><path class="cls-1" d="M386.88,365v-69.32h14.66v28.6h29.75v-28.6h14.62v69.32h-14.62v-28.64h-29.75v28.64h-14.66Z"/><path class="cls-1" d="M500.82,295.68h14.66v45.02c0,5.06-1.2,9.48-3.6,13.27-2.4,3.79-5.76,6.74-10.07,8.85-4.31,2.11-9.33,3.16-15.06,3.16s-10.79-1.05-15.1-3.16c-4.31-2.11-7.66-5.06-10.05-8.85-2.39-3.79-3.59-8.21-3.59-13.27v-45.02h14.66v43.77c0,2.64,.58,4.99,1.74,7.04,1.16,2.05,2.8,3.67,4.93,4.84,2.12,1.17,4.59,1.76,7.41,1.76s5.32-.59,7.43-1.76c2.11-1.17,3.75-2.79,4.91-4.84,1.16-2.05,1.74-4.4,1.74-7.04v-43.77Z"/><path class="cls-1" d="M524.88,307.76v-12.08h56.94v12.08h-21.22v57.24h-14.49v-57.24h-21.22Z"/><path class="cls-1" d="M594.65,365h-15.71l23.93-69.32h18.89l23.9,69.32h-15.71l-17.36-53.48h-.54l-17.4,53.48Zm-.98-27.25h37.1v11.44h-37.1v-11.44Z"/><path class="cls-1" d="M711.97,295.68v69.32h-12.66l-30.16-43.63h-.51v43.63h-14.66v-69.32h12.86l29.92,43.6h.61v-43.6h14.59Z"/></g></svg>