<?xml version="1.0" encoding="UTF-8"?><svg id="Layer_1" xmlns="http://www.w3.org/2000/svg" viewBox="0 0 841.89 595.28"><defs><style>.cls-1{fill:#fff;}</style></defs><g><path class="cls-1" d="M588.34,333.51c0,2.85-.24,5.63-.74,8.34-.98,5.63-2.97,10.92-5.77,15.66-6.82,11.66-18.48,20.12-32.21,22.68h-87.61v-53.99h23.11v31.31h64.93c1.11,0,2.21-.27,3.19-.79,5.88-3.14,10.42-8.45,12.56-14.87,.88-2.61,1.35-5.42,1.35-8.34,0-2.54-.36-4.99-1.04-7.31-2.44-8.45-8.98-15.15-17.36-17.77-1.74-.57-5.6-1.12-5.77-1.12v-22.5c6.34-3.28,11.17-9.07,13.18-16.04,.69-2.33,1.05-4.8,1.05-7.34,0-2.75-.43-5.41-1.21-7.89-1.85-5.89-5.69-10.88-10.74-14.17-1.06-.69-2.3-1.04-3.57-1.04h-56.58v30.45h-23.11v-53.12h81.55c12.38,3.4,22.73,11.69,28.86,22.68,2.59,4.65,4.42,9.76,5.32,15.22,.45,2.56,.67,5.2,.67,7.89,0,2.5-.19,4.96-.57,7.34-.95,6.13-3.07,11.88-6.13,16.99-1.62,2.71-3.49,5.23-5.6,7.55,6.1,3.83,11.26,9.02,15.06,15.13,3.32,5.32,5.61,11.33,6.6,17.77,.38,2.38,.57,4.82,.57,7.31Z"/><path class="cls-1" d="M281.68,333.51c0,2.85,.24,5.63,.74,8.34,.98,5.63,2.97,10.92,5.77,15.66,6.82,11.66,18.48,20.12,32.21,22.68h87.61v-53.99h-23.11v31.31h-64.93c-1.11,0-2.21-.27-3.19-.79-5.88-3.14-10.42-8.45-12.56-14.87-.88-2.61-1.35-5.42-1.35-8.34,0-2.54,.36-4.99,1.04-7.31,2.44-8.45,8.98-15.15,17.36-17.77,1.74-.57,5.6-1.12,5.77-1.12v-22.5c-6.34-3.28-11.17-9.07-13.18-16.04-.69-2.33-1.05-4.8-1.05-7.34,0-2.75,.43-5.41,1.21-7.89,1.85-5.89,5.69-10.88,10.74-14.17,1.06-.69,2.3-1.04,3.57-1.04h56.58v30.45h23.11v-53.12h-81.55c-12.38,3.4-22.73,11.69-28.86,22.68-2.59,4.65-4.42,9.76-5.32,15.22-.45,2.56-.67,5.2-.67,7.89,0,2.5,.19,4.96,.57,7.34,.95,6.13,3.07,11.88,6.13,16.99,1.62,2.71,3.49,5.23,5.6,7.55-6.1,3.83-11.26,9.02-15.06,15.13-3.32,5.32-5.61,11.33-6.6,17.77-.38,2.38-.57,4.82-.57,7.31Z"/></g><path class="cls-1" d="M503.47,341.85v-33.42h-57.01v71.76h-.02v15.32c0,1.47,.1,2.94,.35,4.33,2.07,13.37,13.63,23.59,27.58,23.59,15.44,0,27.96-12.5,27.96-27.93h23.4c0,28.36-22.99,51.33-51.36,51.33-15.82,0-29.96-7.15-39.36-18.39-9.43,11.24-23.56,18.39-39.38,18.39-28.36,0-51.35-22.97-51.35-51.33h23.4c0,15.42,12.5,27.93,27.94,27.93,13.95,0,25.51-10.21,27.6-23.57v-.02c.24-1.4,.35-2.87,.35-4.33v-15.32h-.02v-71.76h-57.01v33.42h-22.68v-88.32h22.68v32.23h57.01v-70.12h.02v-16.03c0-1.47-.1-2.94-.35-4.33-2.07-13.37-13.63-23.59-27.58-23.59-15.44,0-27.96,12.5-27.96,27.93h-23.4c0-28.36,22.99-51.33,51.36-51.33,15.82,0,29.96,7.15,39.36,18.39,9.43-11.24,23.56-18.39,39.38-18.39,28.36,0,51.35,22.97,51.35,51.33h-23.4c0-15.42-12.5-27.93-27.94-27.93-13.95,0-25.51,10.21-27.6,23.57v.02c-.24,1.4-.35,2.87-.35,4.33v16.03h.02v70.12h57.01v-32.23h22.68v88.32h-22.68Z"/></svg>