<?xml version="1.0" encoding="UTF-8"?><svg id="Layer_1" xmlns="http://www.w3.org/2000/svg" viewBox="95 222 635 155"><defs><style>.cls-1{fill:#fff;}</style></defs><path class="cls-1" d="M244.28,317.87v-15.29h-26.09v32.84h0c-3.75,23.63,23.69,26.46,25.57,7.01h10.71c.78,21.47-28.61,31.72-41.51,15.07-12.92,16.65-42.28,6.4-41.51-15.07h10.71c-.07,15.53,23.14,17.21,25.42,1.99,.29-1.35,.11-7.52,.16-9h0v-32.84h-26.09v15.29h-10.38v-40.42h10.38v14.75h26.09v-32.09h0c3.78-24.33-23.83-26.55-25.57-7.33h-10.71c-.78-21.47,28.61-31.72,41.51-15.07,12.92-16.65,42.28-6.4,41.51,15.07h-10.71c.07-15.53-23.14-17.21-25.42-1.99-.29,1.35-.11,7.84-.16,9.33h0v32.09h26.09v-14.75h10.38v40.42h-10.38Z"/><g><g><path class="cls-1" d="M283.12,314.05c-1.35,30.61-38.44,19.4-57.81,21.36v-24.7h10.57v14.33h29.71c.51,0,1.01-.12,1.46-.36,10.52-5.13,6.87-22.11-4.69-22.61v-10.3c8.06-3.81,8.67-16.2,1.04-20.8-.48-.32-1.05-.48-1.63-.48h-25.89v13.93h-10.57v-24.31h37.32c15.27,3.71,21.18,24.29,10.32,35.54,6.25,3.89,10.21,10.98,10.17,18.4Z"/><path class="cls-1" d="M142.79,314.05c1.35,30.61,38.44,19.4,57.81,21.36v-24.7h-10.57v14.33h-29.71c-.51,0-1.01-.12-1.46-.36-10.52-5.13-6.87-22.11,4.69-22.61v-10.3c-8.06-3.81-8.67-16.2-1.04-20.8,.48-.32,1.05-.48,1.63-.48h25.89v13.93h10.57v-24.31h-37.32c-15.27,3.71-21.18,24.29-10.32,35.54-6.25,3.89-10.21,10.98-10.17,18.4Z"/></g><g><path class="cls-1" d="M323.89,279.76v-47.06h9.95v19.41h20.2v-19.41h9.93v47.06h-9.93v-19.44h-20.2v19.44h-9.95Z"/><path class="cls-1" d="M415.4,256.23c1.24,32.04-45.32,32.03-44.07,0-1.27-32.05,45.32-32.02,44.07,0Zm-10.09,0c1.21-20.39-25.11-20.38-23.9,0-1.21,20.39,25.11,20.38,23.9,0Z"/><path class="cls-1" d="M422.75,279.76v-47.06h9.95v38.85h20.17v8.2h-30.12Z"/><path class="cls-1" d="M469.42,232.7v47.06h-9.95v-47.06h9.95Z"/><path class="cls-1" d="M494.3,279.76h-16.68v-47.06c7.66,.38,22.59-1.43,29.04,2.81,19.05,10.81,11.56,46.48-12.36,44.24Zm-6.73-8.52c11.34,.96,20.37-1.67,19.83-15.05,.54-13.35-8.55-15.91-19.83-14.96v30.01Z"/><path class="cls-1" d="M530.15,279.76h-10.66l16.24-47.06h12.82l16.22,47.06h-10.66l-11.79-36.3h-.37l-11.81,36.3Zm-.67-18.5h25.18v7.77h-25.18v-7.77Z"/><path class="cls-1" d="M562.89,232.7h11.14l10.73,20.27h.46l10.73-20.27h11.14l-17.16,30.42v16.64h-9.88v-16.64l-17.16-30.42Z"/><path class="cls-1" d="M625.73,240.91v-8.2h38.65v8.2h-14.41v38.85h-9.83v-38.85h-14.41Z"/><path class="cls-1" d="M711.92,256.23c1.24,32.04-45.32,32.03-44.07,0-1.27-32.05,45.32-32.02,44.07,0Zm-10.09,0c1.21-20.39-25.11-20.38-23.9,0-1.21,20.39,25.11,20.38,23.9,0Z"/></g><g><path class="cls-1" d="M323.89,365v-69.32c8.71,.57,33.03-1.66,40.52,2.27,14.41,5.29,13.31,28-2.27,30.4v.68c17.79,.51,20.59,27.29,4.47,33.48-7.66,4.37-33.79,1.89-42.72,2.5Zm14.66-40.32c7.2-.14,21.37,2.04,21.33-8.8,.19-10.67-14.27-8.1-21.33-8.36v17.16Zm0,28.33c5.12-.3,17.34,1.19,20.88-2.35,4.82-3.91,3.12-12.44-2.52-14.81-3.54-2.12-14.26-.98-18.36-1.25v18.41Z"/><path class="cls-1" d="M386.88,365v-69.32h14.66v28.6h29.75v-28.6h14.62v69.32h-14.62v-28.64h-29.75v28.64h-14.66Z"/><path class="cls-1" d="M500.82,295.68h14.66c-2.51,25.9,12,70.18-28.74,70.3-40.75-.06-26.23-44.52-28.74-70.3h14.66v43.77c-.22,7.91,6.19,13.89,14.08,13.64,7.91,.26,14.29-5.73,14.08-13.64v-43.77Z"/><path class="cls-1" d="M524.88,307.76v-12.08h56.94v12.08h-21.22v57.24h-14.49v-57.24h-21.22Z"/><path class="cls-1" d="M594.65,365h-15.71l23.93-69.32h18.89l23.9,69.32h-15.71l-17.36-53.48h-.54l-17.4,53.48Zm-.98-27.25h37.1v11.44h-37.1v-11.44Z"/><path class="cls-1" d="M711.97,295.68v69.32h-12.66l-30.16-43.63h-.51v43.63h-14.66v-69.32h12.86l29.92,43.6h.61v-43.6h14.59Z"/></g></g></svg>